<svg width="299" height="100" viewBox="0 0 299 100" fill="none" xmlns="http://www.w3.org/2000/svg">
<path d="M132.111 0.186411C128.65 1.29981 125.731 3.76733 124.347 6.77651C123.655 8.28109 123.534 8.88293 123.534 11.5009C123.534 14.149 123.625 14.7207 124.347 16.2253C126.845 21.5516 133.014 24.2297 139.183 22.6048C146.586 20.6789 150.197 12.5541 146.616 5.84366C145.592 3.91779 143.636 2.17247 141.199 1.02898C139.363 0.156319 138.882 0.0660441 136.023 0.00586056C134.278 -0.0242312 132.532 0.0660441 132.111 0.186411Z" fill="#E22836"/>
<path d="M0 50.9139V98.9103L10.021 98.8501L20.0119 98.7598L20.1021 94.9081C20.1322 92.8017 20.2827 91.0864 20.4332 91.0864C20.5535 91.0864 20.9748 91.4475 21.3961 91.8688C24.1647 94.8479 29.3708 97.7969 34.1556 99.1209C36.9843 99.9033 37.5561 99.9635 43.033 99.9635C47.7275 99.9635 49.3827 99.8431 51.3086 99.3918C61.1189 97.0747 69.7556 90.3341 74.1492 81.5473C75.4733 78.8692 76.8877 74.8971 77.5196 71.918C78.1516 68.969 78.2419 60.2424 77.6701 57.3837C76.1956 49.8908 73.0057 43.7521 68.0102 38.7268C60.2462 30.9029 49.2021 27.2618 38.2181 28.9469C32.0491 29.8798 27.5351 31.8658 22.8406 35.7778C22.0582 36.4097 21.336 36.9213 21.2457 36.9213C21.1554 36.9213 21.0651 29.278 21.0651 19.9194V2.91757H10.5326H0V50.9139ZM44.7784 46.6409C49.0215 48.1154 52.6929 51.1547 54.4684 54.6754C58.3805 62.4391 57.2369 71.6171 51.6697 77.3044C48.1789 80.8853 44.1164 82.5103 38.6695 82.4802C34.9681 82.4802 33.4033 82.089 29.9426 80.2835C26.9333 78.7488 24.7666 76.4017 23.0814 72.9712C21.4563 69.631 21.0651 67.9459 21.0651 64.1543C21.0651 60.5433 21.4563 58.7378 22.8707 55.6383C25.1578 50.7334 29.762 47.1525 35.3593 45.9488C37.6765 45.4372 42.371 45.7983 44.7784 46.6409Z" fill="#E22836"/>
<path d="M89.2357 3.27524C89.1454 3.48588 89.1153 25.0617 89.1454 51.2114L89.2357 98.7564L99.7081 98.8467L110.15 98.9069V50.9105V2.91414H99.7683C91.7334 2.91414 89.326 3.00441 89.2357 3.27524Z" fill="#E22836"/>
<path d="M277.52 50.8202L277.611 98.7564L288.083 98.8467L298.525 98.9069V50.9105V2.91414H287.993H277.46L277.52 50.8202Z" fill="black"/>
<path d="M225.53 28.8087C217.796 29.6813 210.845 32.0887 204.826 36.0006C200.433 38.8593 200.433 37.9265 204.917 45.0582C207.053 48.4586 208.919 51.2571 209.1 51.3173C209.25 51.3775 210.364 50.7757 211.597 50.0234C213.914 48.579 218.669 46.5929 221.648 45.8105C226.704 44.4865 231.91 44.5467 235.672 45.961C237.778 46.7434 240.216 48.8799 241.149 50.7456C241.751 51.9191 242.533 54.6876 242.533 55.5602C242.533 55.6806 238.169 55.8913 232.843 55.9815C219.422 56.2223 214.877 57.0046 208.859 60.1041C203.713 62.7522 200.282 66.5437 198.687 71.3283C197.995 73.4949 197.875 74.3074 197.875 77.7078C197.845 82.041 198.266 84.1474 199.801 87.4274C202.359 92.9041 208.167 97.448 214.998 99.2836C218.368 100.186 227.396 100.247 230.797 99.4039C235.07 98.3507 238.35 96.5452 241.841 93.3555L243.707 91.6704L243.797 95.2212L243.887 98.772L253.607 98.8623L263.327 98.9225L263.207 76.143L263.117 53.3335L262.274 49.8729C260.709 43.343 257.73 38.5283 252.975 34.9474C249.515 32.3595 244.218 30.1327 239.313 29.26C236.093 28.6883 228.811 28.4476 225.53 28.8087ZM242.443 72.3514C242.262 76.6245 241.69 78.1291 239.554 80.2957C236.785 83.034 232.963 84.4784 228.389 84.4784C222.461 84.4784 218.97 82.1614 218.308 77.7981C218.007 75.7217 218.759 73.7056 220.445 72.1408C223.183 69.6432 225.38 69.1918 235.13 69.1617L242.623 69.1316L242.443 72.3514Z" fill="black"/>
<path d="M125.021 30.3578C124.93 30.5685 124.9 46.0356 124.93 64.7527L125.021 98.7564L135.643 98.8467L146.236 98.9069V64.4518V29.9967H135.704C127.548 29.9967 125.111 30.087 125.021 30.3578Z" fill="#E22836"/>
<path d="M170.799 64.4217C169.475 64.9032 167.79 66.4078 167.068 67.7619C166.797 68.2734 166.496 69.6577 166.406 70.9215L166.255 73.1784L163.637 73.2687C162.072 73.3289 160.929 73.5094 160.748 73.7201C160.598 73.9307 160.236 76.0371 159.966 78.4445C159.695 80.8518 159.123 85.6364 158.702 89.127C157.679 97.3722 157.679 97.312 158.702 98.1847L159.514 98.9069H173.447C186.959 98.9069 187.41 98.8768 188.163 98.305C189.156 97.4925 189.336 96.5296 188.975 93.7913C188.825 92.5575 188.343 88.5553 187.922 84.9142C187.501 81.2731 187.11 78.1736 187.079 78.0533C187.049 77.9329 185.665 79.1968 184.01 80.912C173.748 91.4742 172.093 93.1894 171.882 93.1894C171.461 93.1894 164.299 85.7869 164.299 85.3355C164.299 85.0947 164.901 84.2823 165.653 83.5601L167.037 82.2059L169.325 84.523C170.558 85.8169 171.702 86.8702 171.822 86.8702C171.943 86.8702 175.012 83.861 178.623 80.1597L185.214 73.4793L183.077 73.389L180.94 73.2988L180.79 71.072C180.609 68.3637 179.616 66.498 177.6 65.0536C176.487 64.3013 175.975 64.1509 174.139 64.0907C172.815 64.0305 171.521 64.1509 170.799 64.4217ZM176.457 66.8892C177.72 67.8221 178.533 69.5975 178.563 71.4933L178.593 73.1784L173.568 73.2687L168.512 73.3289V71.5234C168.512 68.9656 169.234 67.7318 171.371 66.5582C172.544 65.9263 175.373 66.1068 176.457 66.8892Z" fill="#E22836"/>
</svg>
